<?xml version="1.0" encoding="utf-8"?>
<!-- Generator: Adobe Illustrator 20.1.0, SVG Export Plug-In . SVG Version: 6.00 Build 0)  -->
<!DOCTYPE svg PUBLIC "-//W3C//DTD SVG 1.1//EN" "http://www.w3.org/Graphics/SVG/1.1/DTD/svg11.dtd">
<svg version="1.1" id="Layer_1" xmlns="http://www.w3.org/2000/svg" xmlns:xlink="http://www.w3.org/1999/xlink" x="0px" y="0px"
	 width="217px" height="217px" viewBox="0 0 217 217" enable-background="new 0 0 217 217" xml:space="preserve">
<path fill="none" stroke="#A7A9AC" stroke-width="12" stroke-miterlimit="10" d="M149.2,211H67.8C33.8,211,6,183.2,6,149.2V67.8
	C6,33.8,33.8,6,67.8,6h81.4c34,0,61.8,27.8,61.8,61.8v81.4C211,183.2,183.2,211,149.2,211z"/>
<g id="e6KlLO.tif">
	<g>
		<path fill="#A7A9AC" d="M46.3,68.5c14.2,0,28.3-0.1,42.3,0.1c3.1,0.1,6.4,1,9.3,2.2c11,4.4,15.7,19.3,9.2,29.3
			c-1.6,2.5-4.2,4.3-6.4,6.5c6.1,2.5,9.9,7.1,11.2,13.7c2.6,13.6-5.4,28.1-21.2,29.2c-8.8,0.6-17.6,0.5-26.4,0.6
			c-5.9,0.1-11.9,0-18,0C46.3,122.9,46.3,95.9,46.3,68.5z M62.4,135.6c8.1,0,16.1,0.3,24-0.1c5.8-0.3,8.8-4.4,9-10.6
			c0.2-5.5-2.8-9.2-8.4-10.2c-1.4-0.3-2.8-0.2-4.2-0.3c-5.9,0-11.9,0-17.8,0c-0.8,0-1.7,0.1-2.6,0.1
			C62.4,121.7,62.4,128.7,62.4,135.6z M62.4,100.4c7.7,0,15.1,0.1,22.5,0c1.3,0,2.7-0.5,4-1.1c3.5-1.4,5.1-4.5,4.7-8.7
			c-0.3-4-2-6.6-5.8-6.9c-8.4-0.7-16.8-0.9-25.4-1.3C62.4,88.7,62.4,94.5,62.4,100.4z"/>
		<path fill="#A7A9AC" d="M180.2,124.5c-14.7,0-29,0-43.3,0c-0.1,6.8,3.3,12.1,9.1,14c6.7,2.2,12.8,0.4,16.8-4.9
			c0.4-0.5,1-1.2,1.5-1.2c5-0.1,9.9-0.1,15.5-0.1c-1,2.4-1.6,4.5-2.7,6.3c-4.7,7.8-11.8,12.1-20.9,13.2c-10.4,1.2-19.8-1.1-27.5-8.4
			c-4.8-4.5-6.8-10.3-7.4-16.6c-0.9-9.5-0.6-18.9,5.1-27.2c5.9-8.6,14.6-11.9,24.7-11.7c7.4,0.1,14.4,1.9,19.9,7.2
			c6,5.6,8.5,12.8,9.1,20.8C180.3,118.8,180.2,121.5,180.2,124.5z M137.4,113.9c8.8,0,17.7,0,26.5,0c-0.9-8.5-5.7-12.8-14.1-12.6
			C142.7,101.5,137.9,106.3,137.4,113.9z"/>
		<path fill="#A7A9AC" d="M130.1,85c0-2.8,0-5.4,0-8.1c13.9,0,27.6,0,41.6,0c0,2.6,0,5.2,0,8.1C157.9,85,144.1,85,130.1,85z"/>
	</g>
</g>
</svg>
