<?xml version="1.0" encoding="utf-8"?>
<!-- Generator: Adobe Illustrator 20.1.0, SVG Export Plug-In . SVG Version: 6.00 Build 0)  -->
<!DOCTYPE svg PUBLIC "-//W3C//DTD SVG 1.1//EN" "http://www.w3.org/Graphics/SVG/1.1/DTD/svg11.dtd">
<svg version="1.1" id="Layer_1" xmlns="http://www.w3.org/2000/svg" xmlns:xlink="http://www.w3.org/1999/xlink" x="0px" y="0px"
	 width="288px" height="288px" viewBox="0 0 288 288" enable-background="new 0 0 288 288" xml:space="preserve">
<rect x="0.4" y="0.2" fill="#58595B" width="287.6" height="287.8"/>
<path fill="#FFFFFF" d="M55.7,130.5l25.9,6.4c0,0,2.4,51.6,61.3,59.7c0,0-50,3.1-76.3-41.5c0,0-15.4-24.4-23.6-27.6L55.7,130.5z"/>
<path fill="#FFFFFF" d="M232.7,130.5l-25.9,6.4c0,0-2.4,51.6-61.3,59.7c0,0,50,3.1,76.3-41.5c0,0,15.4-24.4,23.6-27.6L232.7,130.5z"
	/>
<path fill="#FFFFFF" d="M86.1,137.3c0,0,4.9,50.2,56.6,56.6C142.7,193.9,130.8,142.9,86.1,137.3z"/>
<path fill="#FFFFFF" d="M202,137.3c0,0-4.9,50.2-56.6,56.6C145.4,193.9,157.4,142.9,202,137.3z"/>
<path fill="#FFFFFF" d="M134.9,101.1V84.3c0,0,9.3-5.8,19.4,0v16.5C143.5,97.2,134.9,101.1,134.9,101.1z"/>
<path fill="#FFFFFF" d="M86.9,131.7c1.1-10.9,8.5-17,8.5-17c44.2,17,48.1,75.7,48.1,75.7C132.8,143,97.5,134,97.5,134
	S91.8,132.5,86.9,131.7"/>
<path fill="#FFFFFF" d="M201,131.8c-1.1-10.9-8.5-17-8.5-17c-44.2,17-48.1,75.7-48.1,75.7c10.6-47.4,45.9-56.4,45.9-56.4
	S196.1,132.5,201,131.8"/>
<path fill="#FFFFFF" d="M176,118.4c0,0-28.8,15.3-31.9,56.5c-6.1-43.2-31.9-56.5-31.9-56.5S142.9,85.3,176,118.4z"/>
</svg>
